<?xml version="1.0" encoding="UTF-8"?>
<svg version="1.1" xmlns="http://www.w3.org/2000/svg" width="1654" height="2339">
<path d="M0 0 C545.82 0 1091.64 0 1654 0 C1654 771.87 1654 1543.74 1654 2339 C1108.18 2339 562.36 2339 0 2339 C0 1567.13 0 795.26 0 0 Z " fill="#FEFEFE" transform="translate(0,0)"/>
<path d="M0 0 C0.948181 -0.01239212 1.896362 -0.02478424 2.87327576 -0.03755188 C6.00279412 -0.07012723 9.13205782 -0.08886701 12.26171875 -0.1015625 C13.34948608 -0.10612457 14.43725342 -0.11068665 15.5579834 -0.11538696 C35.02652788 -0.14405131 54.3118056 0.97410559 73.69921875 2.5859375 C74.99453522 2.69262756 76.28985168 2.79931763 77.62442017 2.90924072 C92.85173993 4.18444393 107.99058409 5.81648877 123.12783813 7.89614868 C127.05265117 8.42099388 130.98333037 8.89263266 134.914505 9.36705017 C147.66589818 10.91248099 160.33911172 12.8082303 173.01171875 14.8984375 C174.04649353 15.06784851 175.08126831 15.23725952 176.1473999 15.4118042 C196.85944293 18.81165435 217.4711774 22.68089588 238.06497192 26.73010254 C243.61446111 27.82086785 249.16756333 28.88852412 254.7265625 29.9296875 C269.7230406 32.74697183 284.58372801 35.95060931 299.42578125 39.4921875 C305.75719707 41.00210077 312.1028707 42.43738735 318.45654297 43.8503418 C340.0054526 48.64518503 361.6105479 53.56248735 382.734375 60.0078125 C388.07013273 61.63111468 393.44998645 63.09623513 398.82421875 64.5859375 C420.81573066 70.71241886 442.64654225 77.35487548 464.43164062 84.17431641 C466.81725044 84.91973669 469.20401131 85.66148126 471.59179688 86.39990234 C533.30828125 105.50602499 593.35570021 127.91490388 651.44799805 156.21850586 C663.7990666 162.23097725 676.23181876 168.04850838 688.71484375 173.78271484 C691.8398941 175.22304979 694.95786112 176.67768762 698.07421875 178.13671875 C735.89564724 198.60896014 735.89564724 198.60896014 776.94921875 205.2734375 C779.61091957 202.90029785 781.48591897 200.10836627 783.44921875 197.1484375 C784.29069458 195.92024292 784.29069458 195.92024292 785.14916992 194.66723633 C786.79104356 192.22688311 788.38152339 189.76198104 789.94921875 187.2734375 C790.36896973 186.60779785 790.7887207 185.9421582 791.22119141 185.25634766 C796.22825794 177.05643226 798.49162535 169.86103691 796.94921875 160.2734375 C793.81872099 148.08006226 785.1032917 138.61068351 774.55078125 132.12109375 C770.42635018 129.69258485 766.20209312 127.46716117 761.94921875 125.2734375 C761.23411133 124.90025391 760.51900391 124.52707031 759.78222656 124.14257812 C746.13853587 117.1057523 731.89593173 111.59991225 717.61523438 106.02416992 C630.99165825 72.20160669 630.99165825 72.20160669 618.94921875 47.2734375 C681.15788688 46.8580254 741.64995228 50.03576575 803.04248047 60.77294922 C806.00973431 61.2838572 808.98068926 61.76633052 811.953125 62.24609375 C827.59082847 64.83460164 843.00519112 68.22323794 858.44921875 71.7734375 C859.46443604 72.00668732 860.47965332 72.23993713 861.52563477 72.48025513 C871.97362599 74.8879101 882.40634459 77.35463836 892.8125 79.9375 C893.59471924 80.13065796 894.37693848 80.32381592 895.18286133 80.52282715 C902.42197031 82.33766181 909.54933966 84.4965883 916.6796875 86.6953125 C920.27189586 87.78692337 923.87506266 88.81169246 927.5 89.7890625 C944.77638253 94.44966131 961.68538358 100.03364616 978.61669922 105.80078125 C982.51593779 107.12851095 986.42132262 108.43688861 990.328125 109.7421875 C1025.9966001 121.74316919 1061.08066968 135.73337234 1095.375 151.2265625 C1099.0857666 152.8992606 1102.81776781 154.51941897 1106.5546875 156.1328125 C1107.70469238 156.63151855 1108.85469727 157.13022461 1110.03955078 157.64404297 C1112.32089936 158.63248833 1114.60437484 159.61604188 1116.89013672 160.59423828 C1117.92154785 161.0426709 1118.95295898 161.49110352 1120.015625 161.953125 C1120.94318604 162.35257324 1121.87074707 162.75202148 1122.82641602 163.16357422 C1124.94921875 164.2734375 1124.94921875 164.2734375 1125.94921875 166.2734375 C1125.12110687 166.33163666 1124.292995 166.38983582 1123.43978882 166.44979858 C1115.52919579 167.00615438 1107.61876155 167.56471007 1099.70848656 168.1255703 C1095.64444282 168.41364869 1091.58034807 168.70095681 1087.51611328 168.98632812 C1065.26800296 170.53485871 1065.26800296 170.53485871 1043.04296875 172.37890625 C1041.75246109 172.49502762 1041.75246109 172.49502762 1040.43588257 172.61349487 C1035.35404445 173.09017589 1030.35896491 173.78336358 1025.33984375 174.72265625 C1022.49241278 175.18519976 1019.67476154 175.54252584 1016.80859375 175.85546875 C979.34977963 179.9792599 939.745197 189.5994198 910.94921875 215.2734375 C910.26214844 215.86253906 909.57507812 216.45164062 908.8671875 217.05859375 C883.10750664 240.72493711 876.42060492 281.11399707 874.75540161 314.11444092 C874.4307815 323.22778626 874.34019239 332.34275262 874.26171875 341.4609375 C874.22992676 344.180375 874.1941049 346.89975468 874.15820312 349.61914062 C874.07469749 356.17047213 874.00580498 362.7218209 873.94921875 369.2734375 C857.28474047 366.10850266 841.41928047 355.39681039 826.93066406 346.98974609 C821.82237805 344.0490934 816.66315699 341.20006841 811.51171875 338.3359375 C803.31069619 333.76052346 795.17130285 329.09267348 787.07421875 324.3359375 C775.31358374 317.4337532 763.41352274 310.79894288 751.47167969 304.21630859 C748.4894131 302.5723344 745.50994722 300.92335632 742.53137207 299.27270508 C729.14859113 291.85643263 715.73430573 284.50507022 702.25 277.27441406 C697.35376446 274.64844158 692.46297258 272.01493677 687.59765625 269.33203125 C675.14169058 262.46468262 662.54923678 255.89377313 649.89135742 249.40869141 C648.47441876 248.68267155 647.05750745 247.9565983 645.640625 247.23046875 C644.95612778 246.87968262 644.27163055 246.52889648 643.56639099 246.16748047 C639.27711485 243.96562822 635.01176081 241.72403473 630.76391602 239.44311523 C605.35862636 225.81972768 579.08114742 213.76912291 552.78076172 201.9921875 C549.15587127 200.36830952 545.53836391 198.72844962 541.921875 197.0859375 C527.66804362 190.62855662 513.32938093 184.38091424 498.94921875 178.2109375 C498.11689728 177.85333344 497.28457581 177.49572937 496.42703247 177.12728882 C470.98155758 166.20474743 445.34639742 155.74380635 419.63671875 145.4609375 C418.99420921 145.20378086 418.35169968 144.94662422 417.68972015 144.68167496 C395.57125068 135.82996841 373.37032179 127.23623734 351.00396729 119.02893066 C347.80989164 117.85452792 344.62005222 116.66882178 341.4296875 115.484375 C334.67647029 112.98389531 327.91215402 110.51482882 321.14013672 108.0657959 C319.60514534 107.51065722 318.07032935 106.95503346 316.53564453 106.39904785 C292.78826479 97.79839403 268.97298385 89.49656441 244.91918945 81.78979492 C243.22865589 81.24795429 241.53814405 80.7060459 239.84765625 80.1640625 C238.6523101 79.78125626 238.6523101 79.78125626 237.43281555 79.39071655 C232.32545206 77.74540639 227.28286656 75.96727472 222.25341797 74.09619141 C218.66139235 72.81359697 215.00967171 71.81068814 211.32421875 70.8359375 C206.25950816 69.47914366 201.21947137 68.06225792 196.19522095 66.5612793 C186.17278856 63.572906 176.08530853 60.90887706 165.94921875 58.3359375 C165.05978577 58.10888123 164.17035278 57.88182495 163.25396729 57.64788818 C151.20758741 54.57272793 139.14331295 51.57400934 127.06640625 48.62109375 C125.80209778 48.31178421 124.53778931 48.00247467 123.23516846 47.68379211 C117.0021497 46.16011397 110.76779491 44.64223679 104.53125 43.13305664 C93.41282598 40.43198526 82.36998631 37.63322633 71.42041016 34.31054688 C67.68847881 33.19553461 63.94143588 32.2304688 60.15771484 31.3112793 C32.23584124 24.4930184 4.60839682 15.26249035 -21.05078125 2.2734375 C-21.05078125 1.9434375 -21.05078125 1.6134375 -21.05078125 1.2734375 C-14.02604063 0.55780044 -7.06020739 0.08797676 0 0 Z " fill="#EC1B24" transform="translate(231.05078125,898.7265625)"/>
<path d="M0 0 C0.91020905 0.0003336 1.82041809 0.00066719 2.75820923 0.00101089 C8.07186919 0.00360676 13.38541874 0.01429807 18.69903374 0.03660774 C20.33714774 0.04335591 21.97526737 0.0488695 23.61338997 0.05303764 C31.41040699 0.07666457 39.13590764 0.1825026 46.89906311 0.99871826 C51.49345409 1.45352041 56.10390962 1.61866508 60.71484375 1.828125 C84.63221193 2.98539328 108.47856806 4.41034794 132.3125 6.75 C133.8732576 6.90233093 133.8732576 6.90233093 135.46554565 7.05773926 C155.22665036 9.00353256 175.02155046 11.05493031 194.625 14.25 C202.7801507 15.54540077 210.9374758 16.74109543 219.125 17.8125 C226.2785032 18.75875734 233.31216034 19.9467483 240.375 21.44140625 C245.49335982 22.49556946 250.65483864 23.28995791 255.8125 24.125 C288.44124859 29.48598223 320.74217713 36.98467633 352.8125 45 C353.52806061 45.17841431 354.24362122 45.35682861 354.98086548 45.54064941 C372.05179761 49.80968096 388.93571298 54.6287976 405.75 59.8125 C407.29225083 60.28602517 408.83456849 60.75933272 410.37695312 61.23242188 C414.0589878 62.36237467 417.74020491 63.49495876 421.42102051 64.62887573 C424.43795751 65.55816502 427.45533821 66.48601128 430.47265625 67.4140625 C431.50769287 67.73286377 432.54272949 68.05166504 433.60913086 68.38012695 C435.34240771 68.91320122 437.0761799 69.44467221 438.81079102 69.97338867 C504.06315784 89.9065764 567.28750944 116.26500752 629.4375 144.25 C630.50608246 144.73080017 630.50608246 144.73080017 631.59625244 145.22131348 C652.50161738 154.63875223 672.99300006 164.77443305 692.90625 176.15161133 C699.20635865 179.7333948 705.67376394 182.944126 712.17773438 186.13623047 C716.60810127 188.31982314 721.02112256 190.53829132 725.4375 192.75 C727.16660417 193.61470831 728.89576539 194.47930256 730.625 195.34375 C731.89583333 195.97916667 733.16666667 196.61458333 734.4375 197.25 C730.56621579 198.54042807 727.43472082 197.88460594 723.5 197.25 C722.2627417 197.05132324 722.2627417 197.05132324 721.00048828 196.84863281 C691.50416657 191.80073101 662.54191494 182.32509082 634.04638672 173.37744141 C628.22631096 171.55920911 622.39362753 169.78239434 616.5625 168 C609.76006923 165.91821288 602.98404076 163.79362967 596.25 161.5 C590.45179488 159.53472733 584.61336097 157.93709742 578.6875 156.40625 C573.55891215 155.04520169 568.50460996 153.44663059 563.4375 151.875 C553.64272382 148.84927415 543.78568758 146.18868657 533.85546875 143.6484375 C529.0305997 142.4127693 524.23113173 141.10114885 519.4375 139.75 C510.76363928 137.31298364 502.05093018 135.03602232 493.328125 132.78125 C489.54112962 131.80155454 485.76039877 130.8023873 481.984375 129.78125 C465.58911022 125.37256271 449.03914472 121.77706559 432.4375 118.25 C431.38481934 118.0245752 430.33213867 117.79915039 429.24755859 117.56689453 C422.31947023 116.08453589 415.38109988 114.65771615 408.4375 113.25 C407.11569223 112.97931521 405.79391655 112.70847369 404.47216797 112.4375 C382.90032212 108.02686828 361.31798529 104.24356137 339.46728516 101.50714111 C337.53833462 101.26277412 335.61090736 101.00647015 333.68359375 100.74951172 C314.99797038 98.31302334 296.38809654 97.91969753 277.5625 97.8125 C276.4115686 97.80028412 275.26063721 97.78806824 274.0748291 97.77548218 C249.87950477 97.55902859 215.51533972 97.42294641 196.06640625 114.30859375 C190.37079745 120.57257931 189.07540769 125.79370854 189.2578125 134.1640625 C190.04886394 147.74951115 195.60652749 161.04437542 200.0546875 173.7890625 C200.28146179 174.44019516 200.50823608 175.09132782 200.74188232 175.76219177 C201.88035485 179.02823582 203.02650134 182.29124769 204.18554688 185.55004883 C204.60642578 186.74911865 205.02730469 187.94818848 205.4609375 189.18359375 C205.84169434 190.25665771 206.22245117 191.32972168 206.61474609 192.43530273 C207.4375 195.25 207.4375 195.25 207.4375 199.25 C200.08946947 198.65877915 193.33828165 197.04728236 186.25 195.0625 C185.11014648 194.74933838 183.97029297 194.43617676 182.79589844 194.11352539 C180.45969795 193.47131395 178.12424276 192.82638495 175.78955078 192.17871094 C171.82260552 191.07963885 167.85102533 189.99823424 163.87866211 188.91894531 C158.50725532 187.45902199 153.13871469 185.98858249 147.76953125 184.52050781 C136.99778769 181.57596915 126.22156276 178.64912929 115.4375 175.75 C102.87270832 172.37214915 90.3197427 168.9520627 77.76953125 165.52050781 C66.99778676 162.5759689 56.22150974 159.64932835 45.4375 156.75 C33.76355252 153.60955944 22.09182121 150.46260977 10.4375 147.25 C9.46184082 146.98268066 8.48618164 146.71536133 7.48095703 146.43994141 C4.54772816 145.63391049 1.6173213 144.81831987 -1.3125 144 C-2.21266846 143.7537085 -3.11283691 143.50741699 -4.0402832 143.25366211 C-4.8674585 143.02042236 -5.69463379 142.78718262 -6.546875 142.546875 C-7.64080566 142.24281738 -7.64080566 142.24281738 -8.75683594 141.93261719 C-10.5625 141.25 -10.5625 141.25 -12.5625 139.25 C-2.91967438 134.97598176 6.82905231 131.15876689 16.73937988 127.55502319 C20.02870501 126.35887054 23.31484525 125.15407253 26.60128784 123.95002747 C28.30532692 123.32587089 30.00953097 122.70216451 31.71389771 122.0789032 C40.10569429 119.00969467 48.48630952 115.91064427 56.86294556 112.80032349 C59.15650438 111.94900489 61.45066946 111.09933509 63.74487305 110.24975586 C65.13724576 109.73301451 66.52958185 109.21617443 67.921875 108.69921875 C69.13584961 108.24893311 70.34982422 107.79864746 71.60058594 107.3347168 C74.33283828 106.34328204 74.33283828 106.34328204 76.4375 105.25 C66.12114818 81.95844281 34.26688168 68.87122271 11.92041016 60.04345703 C3.87579002 56.94984429 -4.22846109 54.43104668 -12.5625 52.25 C-13.41215332 52.02103027 -14.26180664 51.79206055 -15.13720703 51.55615234 C-46.71465504 43.1261266 -79.79858966 38.51534686 -112.390625 36.48828125 C-116.60797887 36.17146033 -120.79137363 35.6433936 -124.98730469 35.11865234 C-131.38445387 34.34175567 -137.79578395 33.76361257 -144.21386719 33.19067383 C-165.6037135 31.2802683 -165.6037135 31.2802683 -175.6875 29.6875 C-176.41952637 29.572854 -177.15155273 29.45820801 -177.90576172 29.34008789 C-181.94233025 28.6592733 -185.71588239 27.64604658 -189.5625 26.25 C-186.7872551 24.39983673 -185.25684205 23.77798481 -182.109375 23.0234375 C-181.19575195 22.80026855 -180.28212891 22.57709961 -179.34082031 22.34716797 C-177.84180176 21.98969482 -177.84180176 21.98969482 -176.3125 21.625 C-174.13506347 21.0951995 -171.95799807 20.56387205 -169.78125 20.03125 C-168.6159375 19.74636719 -167.450625 19.46148438 -166.25 19.16796875 C-162.41913013 18.21430941 -158.59875157 17.22423502 -154.78125 16.21875 C-132.1293128 10.25552129 -109.91370289 5.50121668 -86.5625 3.25 C-85.19269465 3.11048585 -83.82290343 2.9708329 -82.453125 2.83105469 C-55.00171505 0.09513459 -27.55832842 -0.02223378 0 0 Z " fill="#EC1C25" transform="translate(510.5625,753.75)"/>
<path d="M0 0 C13.0927215 13.0927215 17.96371028 30.08088583 18.10479736 48.16777039 C18.10448677 50.67462239 18.0858815 53.18076295 18.0625 55.6875 C18.05851196 56.55221924 18.05452393 57.41693848 18.05041504 58.30786133 C17.98466981 70.45780412 17.4828634 82.28525902 15.15380859 94.24023438 C14.63345863 96.97111815 14.18252649 99.7088578 13.73828125 102.453125 C12.79778396 108.21290561 11.76679871 113.95223258 10.6875 119.6875 C10.55827148 120.39165039 10.42904297 121.09580078 10.29589844 121.82128906 C6.08429485 144.09224886 -2.05674617 167.50764607 -12.3125 187.6875 C-12.81765137 188.70336182 -12.81765137 188.70336182 -13.33300781 189.73974609 C-27.84779885 218.56004513 -52.4162749 234.35960144 -82.3125 244.6875 C-87.25918534 246.25785891 -92.2570162 247.51368374 -97.3125 248.6875 C-98.51519531 249.00654297 -98.51519531 249.00654297 -99.7421875 249.33203125 C-118.93004359 254.21685176 -142.21944775 253.44524867 -161.3125 248.6875 C-162.51261719 248.43226563 -163.71273437 248.17703125 -164.94921875 247.9140625 C-181.48165514 244.08401879 -199.3501263 236.51633877 -209.6875 222.5 C-229.30189947 189.60207351 -222.00453204 138.09419511 -213.30981445 103.03125 C-209.89221861 89.94489435 -205.94998513 77.00057495 -200.3125 64.6875 C-199.97234863 63.93243164 -199.63219727 63.17736328 -199.28173828 62.39941406 C-191.4371176 45.06217107 -182.33613063 29.4428676 -170.3125 14.6875 C-169.34763672 13.47320313 -169.34763672 13.47320313 -168.36328125 12.234375 C-151.00504726 -8.58094962 -121.92292379 -19.61408581 -95.53759766 -22.15576172 C-62.22543727 -24.50230626 -27.45373087 -20.53625538 0 0 Z " fill="#221E1F" transform="translate(723.3125,1328.3125)"/>
<path d="M0 0 C3.89831822 0.01903013 7.79664696 0.0205376 11.69500446 0.02407622 C19.04321737 0.03332069 26.39129292 0.05782898 33.73944592 0.08812469 C42.11941638 0.12190857 50.49939415 0.13821437 58.87941599 0.153211 C76.08639589 0.18438739 93.29324293 0.23699625 110.50011921 0.30418181 C110.19188135 2.18409403 109.88218448 4.06376704 109.57189655 5.94334197 C109.39959522 6.99011107 109.22729389 8.03688018 109.04977131 9.11536956 C108.20770585 14.0006209 107.19461632 18.83936895 106.12511921 23.67918181 C105.92918171 24.62406463 105.73324421 25.56894744 105.53136921 26.54246306 C103.99904413 33.45732246 102.28819025 38.06160293 96.62511921 42.61668181 C90.72430139 45.80312344 84.47845106 45.4541783 77.9339571 45.46189666 C76.98847507 45.46697738 76.04299305 45.4720581 75.06886005 45.47729278 C73.02274776 45.48796387 70.97662403 45.49659673 68.93049526 45.50341201 C65.68935473 45.51524129 62.44834503 45.53470327 59.20725727 45.55653167 C49.99445675 45.61802154 40.78167166 45.67221018 31.56872272 45.705549 C25.92717665 45.72651055 20.28587291 45.76182093 14.64446545 45.8063066 C12.49835215 45.82044909 10.35219602 45.82918507 8.20603848 45.83236098 C5.20232658 45.8372778 2.1992569 45.86045464 -0.80432415 45.88767791 C-1.68610332 45.88467177 -2.5678825 45.88166564 -3.47638226 45.87856841 C-9.41779574 45.95840478 -14.75080626 46.63651496 -19.21472454 50.96824431 C-34.65750455 75.73589788 -41.0364304 104.20915548 -47.49988079 132.30418181 C-47.77308147 133.47424773 -48.04628216 134.64431365 -48.32776165 135.84983611 C-58.64085844 175.81527234 -58.64085844 175.81527234 -58.49988079 216.30418181 C-55.98636035 219.74602191 -53.50766608 221.04179073 -49.49988079 222.30418181 C-48.65079144 222.64602508 -47.80170208 222.98786834 -46.92688274 223.34007049 C-42.57042858 224.56566267 -38.6141806 224.57255639 -34.11316204 224.53465056 C-33.21550625 224.53419234 -32.31785046 224.53373412 -31.39299297 224.53326201 C-29.49770056 224.53024978 -27.60241041 224.52239438 -25.70715618 224.50999236 C-22.83914462 224.49185111 -19.97145915 224.48948223 -17.10339642 224.48972869 C2.79347957 225.30724714 2.79347957 225.30724714 20.07824421 217.06199431 C28.25730189 207.74842219 29.32659251 190.70867985 31.91369343 178.8359201 C33.62452829 171.00146944 35.52242107 163.26060279 37.64831257 155.53098845 C38.37013167 152.7965995 38.98433836 150.08350378 39.50011921 147.30418181 C37.79867756 147.31989226 37.79867756 147.31989226 36.06286335 147.3359201 C31.81924363 147.37236017 27.5756375 147.39516897 23.33190632 147.4140451 C21.50180446 147.4240483 19.67171837 147.43765516 17.84167194 147.45506072 C15.19783333 147.47956072 12.55420764 147.49072195 9.91027546 147.49949431 C9.10364964 147.50981688 8.29702381 147.52013946 7.46595478 147.53077483 C0.70703936 147.53208361 -5.74882788 146.95481356 -11.62488079 143.42918181 C-16.18952267 135.82144535 -11.91512688 124.97615627 -9.96106243 116.79954314 C-9.08949272 113.14057568 -8.36366686 109.55980096 -7.93738079 105.81980681 C-7.49988079 102.30418181 -7.49988079 102.30418181 -6.49988079 101.30418181 C-3.62061844 101.18227924 -0.76493908 101.12553285 2.11559772 101.11131072 C3.4717947 101.09904449 3.4717947 101.09904449 4.8553896 101.08653045 C7.86326139 101.06161414 10.87108565 101.04514042 13.87902546 101.03074431 C14.90518404 101.02542064 15.93134262 101.02009696 16.98859692 101.01461196 C22.42480314 100.98784738 27.86098619 100.96848715 33.29723835 100.95408416 C38.90731236 100.93747042 44.51679501 100.89272936 50.12664604 100.84171271 C54.44274771 100.80800499 58.75871005 100.79650253 63.07493114 100.79085708 C65.14214223 100.78414937 67.20934431 100.76893986 69.27642727 100.74496627 C72.17772822 100.71325043 75.07744926 100.7132883 77.97887897 100.72068572 C78.82751514 100.70428039 79.67615131 100.68787505 80.55050373 100.67097259 C86.55291845 100.73334867 90.95437818 102.27431986 95.50011921 106.30418181 C99.96122913 115.7840404 97.0408229 126.46776176 94.53890705 136.10188079 C93.59537233 139.73968677 92.69271976 143.38770649 91.78527546 147.03465056 C91.50050091 148.17342399 91.50050091 148.17342399 91.20997334 149.33520293 C89.1327426 157.68695142 87.27937115 166.08546755 85.43761921 174.49168181 C84.77078078 177.52318144 84.10257543 180.55437817 83.43371296 183.58543181 C83.18952122 184.69233115 83.18952122 184.69233115 82.94039631 185.82159209 C78.04319657 207.9680968 72.69557103 230.0154536 67.29601765 252.04417205 C66.81783585 254.00281054 66.34528188 255.96285392 65.88390827 257.9255197 C64.12933732 265.30390833 60.77475516 268.41592994 54.50011921 272.28855681 C50.53556916 274.30180488 46.8974171 274.43375541 42.48792744 274.45135283 C40.63991787 274.46208579 40.63991787 274.46208579 38.75457478 274.47303557 C37.3918431 274.47587571 36.02911114 274.47858745 34.66637897 274.48118377 C33.2287705 274.48745168 31.79116364 274.49409877 30.35355854 274.50109649 C25.63289226 274.52211157 20.91222577 274.53250087 16.19152546 274.54246306 C14.56230814 274.54651247 12.93309099 274.55062945 11.30387402 274.55481315 C3.64348461 274.57386426 -4.0168952 274.58809186 -11.67730373 274.59642512 C-20.4958763 274.60617828 -29.31419658 274.63244766 -38.13268036 274.67292601 C-44.96263373 274.703191 -51.79251526 274.71790404 -58.62253433 274.72120613 C-62.69468838 274.72354604 -66.76657292 274.73236636 -70.83865452 274.7576673 C-74.6776466 274.78113369 -78.51619532 274.78510778 -82.35524082 274.77490592 C-83.7543362 274.77441482 -85.15345478 274.78060777 -86.55248165 274.79446197 C-96.90563859 274.89114018 -106.97202957 273.94383886 -115.81628704 268.12058806 C-116.92810345 267.00490447 -116.92810345 267.00490447 -118.06238079 265.86668181 C-118.82679485 265.12547088 -119.59120892 264.38425994 -120.37878704 263.62058806 C-129.59429174 253.55651019 -128.25835066 243.15509501 -127.76941204 230.0156076 C-125.93836866 192.83931037 -117.98417769 155.31876569 -109.43738079 119.17918181 C-109.23568279 118.32320403 -109.03398479 117.46722625 -108.82617474 116.58530974 C-105.84345602 104.01045953 -102.33582739 91.64396904 -98.49988079 79.30418181 C-98.1166264 78.06490935 -97.733372 76.82563689 -97.33850384 75.54881072 C-96.36308319 72.42147623 -95.37255455 69.29947835 -94.37488079 66.17918181 C-94.05390423 65.16082244 -93.73292767 64.14246306 -93.40222454 63.09324431 C-91.36383846 56.70793853 -89.07694264 50.49066727 -86.49988079 44.30418181 C-86.19630657 43.55942595 -85.89273235 42.8146701 -85.57995892 42.04734588 C-73.42014206 12.46195994 -73.42014206 12.46195994 -60.10144329 6.17136931 C-41.01577469 -1.04590032 -20.05516064 -0.11479293 0 0 Z " fill="#231F20" transform="translate(399.49988079071045,1305.6958181858063)"/>
<path d="M0 0 C11.36986933 -0.18545201 22.73937831 -0.32755322 34.11045265 -0.41449738 C39.39074793 -0.45622944 44.67000774 -0.5128209 49.94970703 -0.60351562 C55.04614793 -0.69051331 60.14159376 -0.73828905 65.23871994 -0.75901794 C67.18209882 -0.77378726 69.12542387 -0.80263017 71.06837845 -0.84584045 C86.01812658 -1.16505746 86.01812658 -1.16505746 90.52215576 1.48266602 C97.53183221 9.7039202 95.32040866 24.82752427 95.6484375 35.0534668 C95.70578356 36.76458194 95.76342933 38.47568705 95.8213501 40.18678284 C95.94492277 43.85556259 96.0664397 47.52440248 96.18634033 51.19330406 C96.37641838 57.00779804 96.57141611 62.82212086 96.76708984 68.63642883 C97.14678696 79.9385231 97.52161247 91.24077631 97.89584351 102.54305267 C98.37175527 116.91065878 98.84964487 131.27819739 99.33238411 145.64557582 C99.52595952 151.41172896 99.71703348 157.1779577 99.90608215 162.94426095 C100.02476245 166.54944795 100.14551337 170.1545636 100.26677704 173.75966454 C100.32206427 175.41588986 100.37651228 177.07214348 100.43000031 178.72842789 C100.72101357 187.72546361 101.12496034 196.69237154 101.77968025 205.67150402 C102.15633872 211.36189812 102.2855398 217.05763419 102.4296875 222.7578125 C102.50321281 225.28387445 102.57745158 227.80991571 102.65234375 230.3359375 C102.76645063 234.25508887 102.87622773 238.17415764 102.97412109 242.09375 C103.07138457 245.91976322 103.18648353 249.74489659 103.3046875 253.5703125 C103.32981415 254.74425568 103.3549408 255.91819885 103.38082886 257.12771606 C103.41741608 258.2201059 103.4540033 259.31249573 103.49169922 260.43798828 C103.51755096 261.39424103 103.54340271 262.35049377 103.57003784 263.33572388 C104.2481973 267.53796357 105.92896182 270.11256837 109.1875 272.8125 C109.785625 273.204375 110.38375 273.59625 111 274 C103.2807204 274.09286256 95.56149905 274.16384714 87.84178734 274.20724869 C84.25679099 274.22808423 80.67217806 274.25632651 77.08740234 274.30175781 C73.6249581 274.34536192 70.16288159 274.36916743 66.70018387 274.37950897 C64.74257518 274.39044821 62.78511352 274.42165128 60.82772827 274.45318604 C49.53875671 274.45602639 49.53875671 274.45602639 45 270 C42.2616266 266.18454078 41.62992594 263.59506013 41.65942383 258.92456055 C41.65978638 257.70700073 41.66014893 256.48944092 41.66052246 255.23498535 C41.67587036 253.96505737 41.69121826 252.69512939 41.70703125 251.38671875 C41.71005249 250.21226196 41.71307373 249.03780518 41.71618652 247.82775879 C41.73186279 243.44758292 41.77374674 239.06753248 41.8125 234.6875 C41.874375 224.890625 41.93625 215.09375 42 205 C11.64 205.33 -18.72 205.66 -50 206 C-54.62 214.25 -59.24 222.5 -64 231 C-69.6875 240.625 -69.6875 240.625 -72.01171875 244.4765625 C-75.94696604 251.2560051 -77.98456828 257.0695048 -77 265 C-75.24568389 269.24729163 -72.56354501 271.212153 -69 274 C-76.58898871 274.04643548 -84.1779626 274.08192605 -91.76706123 274.10362434 C-95.29137329 274.11404089 -98.81558781 274.12816092 -102.33984375 274.15087891 C-106.39584261 274.1768596 -110.45173975 274.18649038 -114.5078125 274.1953125 C-116.3971904 274.21079636 -116.3971904 274.21079636 -118.32473755 274.22659302 C-119.50550873 274.22674408 -120.68627991 274.22689514 -121.90283203 274.22705078 C-122.93763702 274.231492 -123.97244202 274.23593323 -125.03860474 274.24050903 C-129.40640257 273.88577934 -132.92019457 273.22377949 -135.875 269.875 C-137.58115614 265.5148232 -137.881131 261.32764062 -136.21923828 256.9375 C-135.10089111 254.75566212 -133.89246568 252.66120145 -132.625 250.5625 C-132.17237793 249.78173096 -131.71975586 249.00096191 -131.25341797 248.1965332 C-129.85199957 245.7876178 -128.42784189 243.3933255 -127 241 C-126.17575892 239.59713147 -125.35278601 238.19351686 -124.53125 236.7890625 C-122.90064833 234.00596563 -121.26106576 231.22839692 -119.6171875 228.453125 C-116.77798481 223.64302991 -114.01245101 218.79196142 -111.25 213.9375 C-106.88111687 206.26329567 -102.45897268 198.62220166 -98 191 C-93.62618596 183.52259346 -89.28555339 176.02834604 -85 168.5 C-80.79744133 161.11759834 -76.54099932 153.76883446 -72.25 146.4375 C-67.05034868 137.55104726 -61.91285288 128.63114026 -56.8125 119.6875 C-49.48255297 106.83592542 -42.10117695 94.01615459 -34.63671875 81.2421875 C-33.44526001 79.20315567 -32.25385459 77.16409268 -31.0625 75.125 C-30.46808105 74.10760742 -29.87366211 73.09021484 -29.26123047 72.04199219 C-24.98285002 64.70929427 -20.75955823 57.34676053 -16.55908203 49.96923828 C-0.93578598 22.5697458 -0.93578598 22.5697458 3.66381836 15.41015625 C5.48945129 12.11714542 5.33721193 9.70933123 5 6 C4.32575833 3.64539322 4.32575833 3.64539322 3 2 C2.01 1.67 1.02 1.34 0 1 C0 0.67 0 0.34 0 0 Z " fill="#231F20" transform="translate(1051,1306)"/>
<path d="M0 0 C1.65542061 -0.00043808 1.65542061 -0.00043808 3.34428406 -0.00088501 C6.95860918 0.00049806 10.57272302 0.01601095 14.18701172 0.03173828 C16.70620613 0.03547205 19.225402 0.0383173 21.74459839 0.04031372 C27.67647353 0.04714573 33.60828191 0.0628766 39.54012287 0.0830127 C46.29958681 0.10545465 53.05905454 0.11638588 59.81854653 0.12640357 C73.70963861 0.14724553 87.60066481 0.18236938 101.49169922 0.22705078 C101.17329363 1.82009268 100.8548318 3.41312334 100.53634644 5.00614929 C100.35900908 5.89326945 100.18167171 6.78038961 99.99896049 7.6943922 C98.9061791 13.15044079 97.77469127 18.59698813 96.61669922 24.03955078 C96.37306641 25.2403125 96.12943359 26.44107422 95.87841797 27.67822266 C95.62962891 28.83515625 95.38083984 29.99208984 95.12451172 31.18408203 C94.90682129 32.22540283 94.68913086 33.26672363 94.46484375 34.33959961 C93.14873685 38.24466642 91.26306519 41.05633731 87.79176331 43.35055542 C84.64039874 44.55145953 81.91373976 44.4867504 78.54272461 44.49829102 C77.85101166 44.50351776 77.15929871 44.50874451 76.44662476 44.51412964 C74.94671452 44.524355 73.44676896 44.53014749 71.94682503 44.53201103 C69.56101798 44.53568821 67.17562169 44.55245679 64.78990173 44.57276917 C58.00722973 44.6280147 51.22449502 44.65866819 44.44165039 44.68334961 C40.28716717 44.69937468 36.13296954 44.72975829 31.97863579 44.76811409 C30.40686554 44.77964636 28.83504383 44.78569339 27.26323128 44.78579521 C11.76474602 44.33525467 11.76474602 44.33525467 -2.31413269 49.4994812 C-8.87507065 56.74301111 -11.3064161 69.71764652 -11.70361328 79.21533203 C-11.28681598 85.64234636 -9.20213499 90.37189903 -4.88330078 95.10205078 C2.78159751 99.92809785 11.24622373 102.07483605 19.99169922 104.10205078 C40.56257296 109.0963188 60.33295979 114.58572976 75.49169922 130.22705078 C76.40048828 131.12230469 76.40048828 131.12230469 77.32763672 132.03564453 C87.90141205 143.20258287 85.94248895 160.60604436 85.62792969 174.81787109 C84.53872571 202.07529822 77.53072307 236.89687773 56.83154297 256.32470703 C41.37512123 268.89111335 23.51273777 274.5219718 3.79345703 274.53344727 C2.56293106 274.54177078 1.33240509 274.5500943 0.06459045 274.55867004 C-3.28022495 274.57851099 -6.62479277 274.58938545 -9.9696455 274.59449649 C-12.0632934 274.59815873 -14.15691802 274.60440781 -16.25055695 274.61149788 C-23.56483496 274.63590958 -30.87904271 274.64902945 -38.19335938 274.65258789 C-44.99759383 274.65623254 -51.80137989 274.6862149 -58.60547709 274.72799248 C-64.46476296 274.76270073 -70.3238999 274.77813629 -76.18328786 274.77883393 C-79.67561104 274.77962557 -83.16747455 274.78831415 -86.65969086 274.81683159 C-90.54918338 274.84789306 -94.43802851 274.83895007 -98.32763672 274.82641602 C-100.05302925 274.84866745 -100.05302925 274.84866745 -101.8132782 274.87136841 C-110.50969976 274.79144632 -110.50969976 274.79144632 -114.18365479 271.8028717 C-117.96218074 267.61608102 -118.74422151 265.33668888 -118.69140625 259.62426758 C-118.33629661 254.97517222 -117.06978004 250.53499292 -115.88330078 246.03955078 C-115.48268433 244.47962402 -115.48268433 244.47962402 -115.07397461 242.88818359 C-112.58305079 233.28563951 -109.87981378 223.74388142 -107.07739258 214.22802734 C-106.51109476 212.23687465 -105.99919371 210.23799182 -105.50830078 208.22705078 C-103.85830078 208.22705078 -102.20830078 208.22705078 -100.50830078 208.22705078 C-100.56630859 209.03529297 -100.62431641 209.84353516 -100.68408203 210.67626953 C-101.12738984 217.46696242 -101.12738984 217.46696242 -98.19580078 223.35205078 C-93.34729583 226.76255629 -93.34729583 226.76255629 -87.65161133 227.4699707 C-86.66174728 227.47304733 -85.67188324 227.47612396 -84.65202332 227.47929382 C-83.57721207 227.47210831 -82.50240082 227.46492279 -81.39501953 227.45751953 C-80.27505081 227.45706131 -79.15508209 227.45660309 -78.00117493 227.45613098 C-75.61625111 227.45310371 -73.23132935 227.44520334 -70.84643555 227.43286133 C-67.27596642 227.41495287 -63.70576262 227.41234945 -60.13525391 227.41259766 C-49.18020845 227.39603945 -38.23902814 227.26531813 -27.29345703 226.78955078 C-26.42009201 226.75262619 -25.54672699 226.7157016 -24.64689636 226.67765808 C-13.22976034 226.11691313 -1.52433114 224.93261161 7.49169922 217.22705078 C9.65286301 214.73957265 11.10510355 212.20743458 12.49169922 209.22705078 C12.85908203 208.45232422 13.22646484 207.67759766 13.60498047 206.87939453 C17.64720332 197.60433046 20.78430715 185.85014035 17.36669922 175.97705078 C13.47860164 170.27450767 8.35535849 167.31077048 2.05419922 164.78955078 C1.33047119 164.49443604 0.60674316 164.19932129 -0.13891602 163.89526367 C-7.28306227 161.104219 -14.62317643 159.27490965 -22.0534668 157.41992188 C-39.26392606 153.08259412 -61.18608686 146.69575096 -71.50830078 131.22705078 C-81.94895096 113.71370209 -75.03148793 85.04803703 -71.50830078 66.22705078 C-71.36408691 65.4163916 -71.21987305 64.60573242 -71.07128906 63.77050781 C-67.31558707 43.2985177 -54.97882471 23.90653654 -38.50830078 11.22705078 C-26.22596395 2.84854515 -14.71595345 -0.10367182 0 0 Z " fill="#231F20" transform="translate(835.50830078125,1305.77294921875)"/>
<path d="M0 0 C8.81421584 -0.0926259 17.6282645 -0.16372688 26.4428606 -0.20724869 C30.53573085 -0.22813567 34.62826847 -0.25647286 38.72094727 -0.30175781 C42.66966209 -0.34517706 46.61805672 -0.36912874 50.56699181 -0.37950897 C52.07454152 -0.3869075 53.58207345 -0.40135512 55.08948708 -0.42292023 C57.19912386 -0.45190406 59.30743291 -0.4559584 61.41723633 -0.45410156 C62.61858719 -0.46298401 63.81993805 -0.47186646 65.05769348 -0.48101807 C68 0 68 0 69.88652039 1.89828491 C73.90926598 9.49129784 69.84890932 20.36744857 68 28.125 C67.68292833 29.48942887 67.36653693 30.85401598 67.05078125 32.21875 C64.49703809 43.18398028 61.7488944 54.10104243 58.98242188 65.01416016 C56.67408311 74.14613361 54.54049874 83.30377966 52.5 92.5 C50.01044437 103.72005207 47.31806605 114.86776161 44.49075317 126.00622559 C41.65923087 137.1772095 39.07294016 148.38681921 36.57421875 159.63671875 C34.678066 168.12631176 32.64325264 176.56959452 30.5 185 C27.66425908 196.15978243 25.06046418 207.35994632 22.57006836 218.60058594 C21.19260766 224.79622331 19.77746219 230.97414799 18.2265625 237.12890625 C17.94627197 238.24885986 17.66598145 239.36881348 17.37719727 240.52270508 C16.85488322 242.59176993 16.3224173 244.65831414 15.77709961 246.72143555 C14.06804021 253.51598877 12.2161066 261.49031748 14.88500977 268.23730469 C16.26938764 270.42587668 17.62869864 271.05147946 20 272 C20 272.33 20 272.66 20 273 C11.62873397 273.09283046 3.25768431 273.16383051 -5.1139698 273.20724869 C-9.00162103 273.2280912 -12.88891915 273.25634681 -16.77636719 273.30175781 C-20.53058195 273.34533619 -24.28445786 273.36916219 -28.0389061 273.37950897 C-29.46861986 273.38687898 -30.89831583 273.40127114 -32.32788467 273.42292023 C-34.33575481 273.4521076 -36.34396857 273.4536352 -38.35205078 273.45410156 C-39.49344513 273.46298401 -40.63483948 273.47186646 -41.81082153 273.48101807 C-46.58344469 272.76117188 -49.64078341 270.35921659 -53 267 C-54.27779814 259.01938392 -51.85350874 251.09697198 -49.875 243.4375 C-49.39115486 241.50211944 -48.90732144 239.56673571 -48.42460632 237.631073 C-47.93483034 235.67291271 -47.44022188 233.7160221 -46.94482422 231.75927734 C-45.56437793 226.26674195 -44.24964704 220.75917196 -42.9375 215.25 C-42.44693383 213.20304846 -41.95604924 211.15617321 -41.46484375 209.109375 C-41.22362793 208.10326172 -40.98241211 207.09714844 -40.73388672 206.06054688 C-39.49008754 200.87349879 -38.24496961 195.68676726 -37 190.5 C-36.49999385 188.41666814 -35.99999384 186.33333481 -35.5 184.25 C-8.5 71.75 -8.5 71.75 -7.74951172 68.62304688 C-7.25109005 66.54623578 -6.7527174 64.46941293 -6.25439453 62.39257812 C-4.72029914 55.99934343 -3.18430783 49.60656774 -1.64697266 43.21411133 C-0.89282475 40.07421344 -0.14154095 36.9336409 0.609375 33.79296875 C1.48180768 30.14641645 2.36649341 26.50333702 3.265625 22.86328125 C3.45495605 22.08662109 3.64428711 21.30996094 3.83935547 20.50976562 C4.18186131 19.10477357 4.5293619 17.70098368 4.88330078 16.29882812 C5.81003188 12.46394087 6.42376598 8.93987831 6 5 C3.09587454 2.64677204 3.09587454 2.64677204 0 1 C0 0.67 0 0.34 0 0 Z " fill="#231F20" transform="translate(1223,1307)"/>
<path d="M0 0 C1.39430938 -0.01146849 2.78857666 -0.03183857 4.18261719 -0.06152344 C15.21369085 -0.29580941 26.16504174 0.45616589 34.55273438 8.48266602 C44.09042459 20.57416399 43.26972524 40.26024555 41.57958984 54.74829102 C39.46772345 70.16349291 36.42158603 85.20424027 31.69433594 100.03076172 C30.95294843 102.388913 30.2693515 104.76002885 29.58398438 107.13500977 C22.91680336 129.3718424 12.23279239 161.89586726 -9.01757812 174.29516602 C-12.28061979 175.89231121 -15.56665348 177.1647844 -19.01757812 178.29516602 C-19.70207031 178.52204102 -20.3865625 178.74891602 -21.09179688 178.98266602 C-35.12868001 182.83278253 -48.9767425 180.40189474 -61.74414062 173.90844727 C-68.38080578 169.85763994 -73.82099718 163.88335472 -76.01757812 156.29516602 C-83.91978902 115.53639403 -64.37499199 57.95130614 -43.01757812 23.29516602 C-40.55497015 19.74315154 -37.92728998 16.48743254 -35.01757812 13.29516602 C-34.45554687 12.64161133 -33.89351562 11.98805664 -33.31445312 11.31469727 C-24.02479482 1.13514179 -13.04953002 0.07449056 0 0 Z " fill="#FEFDFD" transform="translate(639.017578125,1353.704833984375)"/>
<path d="M0 0 C0.33 0 0.66 0 1 0 C1.73697106 6.531896 2.17162945 12.99539418 2.28125 19.56640625 C2.30886414 20.88305519 2.30886414 20.88305519 2.33703613 22.2263031 C2.39508401 25.00497542 2.44810526 27.78370645 2.5 30.5625 C2.77333029 45.59925719 2.77333029 45.59925719 3.52734375 60.6171875 C4.14273312 69.93374669 4.11031938 79.22925811 4.0625 88.5625 C4.041875 94.316875 4.02125 100.07125 4 106 C-17.12 106 -38.24 106 -60 106 C-58.49435603 102.23589007 -56.96798631 98.96459936 -55.015625 95.44921875 C-54.41758057 94.37099854 -53.81953613 93.29277832 -53.20336914 92.18188477 C-52.55250418 91.01694561 -51.90137409 89.85215455 -51.25 88.6875 C-50.91708954 88.09009003 -50.58417908 87.49268005 -50.24118042 86.87716675 C-45.05160398 77.56622422 -39.74312151 68.32975872 -34.3449707 59.13793945 C-30.16180899 52.01174393 -26.04555248 44.84945708 -21.95825195 37.6680603 C-16.54750973 28.16351117 -11.103291 18.67951485 -5.5625 9.25 C-5.01263428 8.30882324 -4.46276855 7.36764648 -3.89624023 6.39794922 C-3.39552002 5.54990723 -2.8947998 4.70186523 -2.37890625 3.828125 C-1.9413501 3.0846582 -1.50379395 2.34119141 -1.05297852 1.57519531 C-0.70549561 1.05538086 -0.3580127 0.53556641 0 0 Z " fill="#FBFBFB" transform="translate(1087,1361)"/>
</svg>
