<?xml version="1.0" encoding="UTF-8"?>
<svg version="1.1" xmlns="http://www.w3.org/2000/svg" width="444" height="254">
<path d="M0 0 C0.7558136 0.22471985 1.5116272 0.4494397 2.29034424 0.68096924 C32.23778206 9.61862375 60.9271417 20.19727336 89.04345703 33.89916992 C96.5229083 37.53025466 104.04230203 40.95031658 111.7734375 44.015625 C112.52291656 44.31772888 113.27239563 44.61983276 114.04458618 44.93109131 C117.78281684 46.37662506 120.9227957 47.52243661 125 47 C128.35673136 44.21120046 129.86291407 40.49693651 131 36.375 C131 32.4138121 130.48771712 31.0494597 128 28 C124.02767593 24.42205055 120.40677392 21.97830559 115.5 19.75 C114.87053467 19.46189453 114.24106934 19.17378906 113.5925293 18.87695312 C108.68201234 16.66356466 103.6952444 14.65488026 98.69506836 12.65429688 C73.82282289 2.69444454 73.82282289 2.69444454 68 -5 C68 -6.32 68 -7.64 68 -9 C130.35681365 -10.48251386 196.91330925 4.28217999 252 34 C252 34.66 252 35.32 252 36 C250.81672119 36.10022461 249.63344238 36.20044922 248.41430664 36.30371094 C243.93821174 36.68624149 239.46372575 37.08547816 234.98950195 37.48925781 C233.06899175 37.66034005 231.14809532 37.82715166 229.22680664 37.98925781 C200.02915212 40.25212919 200.02915212 40.25212919 175 54 C174.34 54 173.68 54 173 54 C172.731875 54.54269531 172.46375 55.08539063 172.1875 55.64453125 C171.3328236 57.33982687 170.45492903 59.02348924 169.5625 60.69921875 C169.046875 61.68535156 168.53125 62.67148438 168 63.6875 C167.484375 64.66074219 166.96875 65.63398438 166.4375 66.63671875 C162.62444712 75.5580191 162.42898554 84.99437837 161.875 94.5625 C161.7884146 95.96683736 161.70117998 97.37113485 161.61328125 98.77539062 C161.40248535 102.18325762 161.19823839 105.59138336 161 109 C155.87188225 108.2665101 151.94298271 106.67127807 147.4375 104.1875 C146.69918945 103.78861572 145.96087891 103.38973145 145.20019531 102.97875977 C138.61939838 99.3985157 132.12559428 95.66559639 125.63110352 91.93188477 C70.67754257 60.38747048 13.79635309 34.02564221 -46 13 C-46.74584351 12.73743408 -47.49168701 12.47486816 -48.26013184 12.2043457 C-72.29100661 3.77881993 -96.62674574 -3.01504687 -121.3371582 -9.15600586 C-150.32393241 -16.3938537 -150.32393241 -16.3938537 -163 -23 C-163 -23.66 -163 -24.32 -163 -25 C-118.78753198 -39.73748934 -43.11866611 -12.82862348 0 0 Z " fill="#D0342E" transform="translate(183,135)"/>
<path d="M0 0 C0 0.66 0 1.32 0 2 C-6.00261229 2.29360604 -11.19769115 1.23750281 -17 -0.25 C-18.02706055 -0.50885986 -19.05412109 -0.76771973 -20.11230469 -1.03442383 C-29.1040046 -3.36958366 -37.94292168 -6.12614896 -46.80108643 -8.9168396 C-119.74762079 -34.77444739 -119.74762079 -34.77444739 -193.26171875 -28.83203125 C-195.96394551 -25.98406642 -195.93402342 -23.89261814 -196 -20 C-195.27808901 -16.674942 -194.20003663 -13.51602219 -193.0625 -10.3125 C-192.48576836 -8.64368673 -191.91395824 -6.97316253 -191.34765625 -5.30078125 C-191.08992432 -4.57028564 -190.83219238 -3.83979004 -190.56665039 -3.0871582 C-190 -1 -190 -1 -190 3 C-194.98458063 2.37703111 -199.74165218 1.3835698 -204.58764648 0.05053711 C-205.31043289 -0.14468033 -206.0332193 -0.33989777 -206.77790833 -0.54103088 C-209.14339144 -1.18096713 -211.50723189 -1.82675955 -213.87109375 -2.47265625 C-215.52008874 -2.91999573 -217.16918395 -3.36696592 -218.81837463 -3.81358337 C-223.14133645 -4.9853433 -227.46292506 -6.16209075 -231.78424072 -7.33990479 C-236.20104047 -8.54278699 -240.61912901 -9.74091587 -245.03710938 -10.93945312 C-253.69266955 -13.28833535 -262.34678555 -15.64249201 -271 -18 C-270.6590271 -19.91424561 -270.6590271 -19.91424561 -270 -22 C-267.45556641 -23.37207031 -267.45556641 -23.37207031 -264.1015625 -24.578125 C-262.90015625 -25.01640625 -261.69875 -25.4546875 -260.4609375 -25.90625 C-259.83155273 -26.12667969 -259.20216797 -26.34710938 -258.55371094 -26.57421875 C-256.63377594 -27.24692509 -254.72293359 -27.94144569 -252.8125 -28.640625 C-243.47423735 -32 -243.47423735 -32 -240 -32 C-250.84945264 -46.55717842 -271.42636827 -50.91990156 -288.47070312 -53.5234375 C-297.74574133 -54.77584996 -307.0666007 -55.70521415 -316.3815918 -56.60595703 C-317.56226227 -56.72342285 -317.56226227 -56.72342285 -318.76678467 -56.84326172 C-320.24906602 -56.99011214 -321.73192538 -57.13128715 -323.21539307 -57.265625 C-327.38819875 -57.68206918 -331.07584538 -58.52370663 -335 -60 C-335 -60.66 -335 -61.32 -335 -62 C-252.31693313 -84.73829779 -155.38634681 -66.09307344 0 0 Z " fill="#CC332D" transform="translate(395,128)"/>
<path d="M0 0 C0 0.33 0 0.66 0 1 C-7.79403029 0.43573151 -15.36350233 -0.93600763 -23.03033447 -2.41177368 C-35.34987245 -4.76860012 -47.67650065 -6.77350326 -60.125 -8.3125 C-61.39617676 -8.47145752 -62.66735352 -8.63041504 -63.97705078 -8.79418945 C-75.75733915 -10.20117202 -87.56597148 -11.20768332 -99.4375 -11.0625 C-100.18064453 -11.05798828 -100.92378906 -11.05347656 -101.68945312 -11.04882812 C-103.4596734 -11.03740735 -105.22985029 -11.01949981 -107 -11 C-107.33 -10.34 -107.66 -9.68 -108 -9 C-109.32 -9.33 -110.64 -9.66 -112 -10 C-112 -10.66 -112 -11.32 -112 -12 C-81.32181074 -22.22606309 -30.74579143 -7.0615334 0 0 Z " fill="#541412" transform="translate(132,122)"/>
<path d="M0 0 C0.89267578 0.00322266 1.78535156 0.00644531 2.70507812 0.00976562 C4.09823242 0.02233398 4.09823242 0.02233398 5.51953125 0.03515625 C6.45990234 0.03966797 7.40027344 0.04417969 8.36914062 0.04882812 C10.69016837 0.06060999 13.01106769 0.07706067 15.33203125 0.09765625 C15.33203125 0.42765625 15.33203125 0.75765625 15.33203125 1.09765625 C9.39203125 1.42765625 3.45203125 1.75765625 -2.66796875 2.09765625 C-2.99796875 2.75765625 -3.32796875 3.41765625 -3.66796875 4.09765625 C-4.98796875 3.76765625 -6.30796875 3.43765625 -7.66796875 3.09765625 C-7.66796875 2.43765625 -7.66796875 1.77765625 -7.66796875 1.09765625 C-4.78531726 0.13677242 -2.99134604 -0.01905316 0 0 Z " fill="#651815" transform="translate(27.66796875,108.90234375)"/>
<path d="M0 0 C-0.99 0.495 -0.99 0.495 -2 1 C-1.67 1.66 -1.34 2.32 -1 3 C-2.65 3 -4.3 3 -6 3 C-6.33 2.01 -6.66 1.02 -7 0 C-3.86650268 -1.04449911 -3.01031744 -0.93423645 0 0 Z " fill="#7E1E1A" transform="translate(67,66)"/>
</svg>
